name rise30.9205peak61.366fall85.3838.mot
datacolumns 19
datarows 36
range 20.02492400000000 20.08325500000000
endheader
time	ground_force1_vx	ground_force1_vy	ground_force1_vz	ground_force1_px	ground_force1_py	ground_force1_pz	ground_force2_vx	ground_force2_vy	ground_force2_vz	ground_force2_px	ground_force2_py	ground_force2_pz	ground_torque1_x	ground_torque1_y	ground_torque1_z	ground_torque2_x	ground_torque2_y	ground_torque2_z	
20.02492400000000	1.31040600000000	695.89781600000003	39.95957300000000	0.22359900000000	0.00000000000000	0.10950400000000	0.00000000000000	0.00000000000000	0.00000000000000	0.00000000000000	0.00000000000000	0.00000000000000	0.00000000000000	17.06700500000000	0.00000000000000	0.00000000000000	0.00000000000000	0.00000000000000	
20.02659700000000	0.71023100000000	697.09482800000001	40.07004100000000	0.22262900000000	0.00000000000000	0.10960500000000	0.00000000000000	0.00000000000000	0.00000000000000	0.00000000000000	0.00000000000000	0.00000000000000	0.00000000000000	17.18750600000000	0.00000000000000	0.00000000000000	0.00000000000000	0.00000000000000	
20.02826100000000	0.10296500000000	698.33590000000004	40.18171700000000	0.22163700000000	0.00000000000000	0.10970600000000	0.00000000000000	0.00000000000000	0.00000000000000	0.00000000000000	0.00000000000000	0.00000000000000	0.00000000000000	17.30912500000000	0.00000000000000	0.00000000000000	0.00000000000000	0.00000000000000	
20.02992900000000	-0.51134000000000	699.61995500000000	40.29461700000000	0.22062300000000	0.00000000000000	0.10980900000000	0.00000000000000	0.00000000000000	0.00000000000000	0.00000000000000	0.00000000000000	0.00000000000000	0.00000000000000	17.43181300000000	0.00000000000000	0.00000000000000	0.00000000000000	0.00000000000000	
20.03159100000000	-1.13260900000000	700.94593099999997	40.40876900000000	0.21958600000000	0.00000000000000	0.10991300000000	0.00000000000000	0.00000000000000	0.00000000000000	0.00000000000000	0.00000000000000	0.00000000000000	0.00000000000000	17.55552800000000	0.00000000000000	0.00000000000000	0.00000000000000	0.00000000000000	
20.03325800000000	-1.76074700000000	702.31278099999997	40.52421100000000	0.21852900000000	0.00000000000000	0.11001800000000	0.00000000000000	0.00000000000000	0.00000000000000	0.00000000000000	0.00000000000000	0.00000000000000	0.00000000000000	17.68023500000000	0.00000000000000	0.00000000000000	0.00000000000000	0.00000000000000	
20.03492300000000	-2.39563600000000	703.71947200000000	40.64099000000000	0.21745000000000	0.00000000000000	0.11012400000000	0.00000000000000	0.00000000000000	0.00000000000000	0.00000000000000	0.00000000000000	0.00000000000000	0.00000000000000	17.80590300000000	0.00000000000000	0.00000000000000	0.00000000000000	0.00000000000000	
20.03659400000000	-3.03713800000000	705.16498700000000	40.75916400000000	0.21635200000000	0.00000000000000	0.11023200000000	0.00000000000000	0.00000000000000	0.00000000000000	0.00000000000000	0.00000000000000	0.00000000000000	0.00000000000000	17.93250300000000	0.00000000000000	0.00000000000000	0.00000000000000	0.00000000000000	
20.03825500000000	-3.68509600000000	706.64833199999998	40.87879900000000	0.21523500000000	0.00000000000000	0.11034000000000	0.00000000000000	0.00000000000000	0.00000000000000	0.00000000000000	0.00000000000000	0.00000000000000	0.00000000000000	18.06001300000000	0.00000000000000	0.00000000000000	0.00000000000000	0.00000000000000	
20.03992500000000	-4.33933600000000	708.16852800000004	40.99996900000000	0.21410100000000	0.00000000000000	0.11044800000000	0.00000000000000	0.00000000000000	0.00000000000000	0.00000000000000	0.00000000000000	0.00000000000000	0.00000000000000	18.18841400000000	0.00000000000000	0.00000000000000	0.00000000000000	0.00000000000000	
20.04159200000000	-4.99966300000000	709.72462099999996	41.12275500000000	0.21295000000000	0.00000000000000	0.11055800000000	0.00000000000000	0.00000000000000	0.00000000000000	0.00000000000000	0.00000000000000	0.00000000000000	0.00000000000000	18.31768700000000	0.00000000000000	0.00000000000000	0.00000000000000	0.00000000000000	
20.04325900000000	-5.66586800000000	711.31567500000006	41.24724800000000	0.21178300000000	0.00000000000000	0.11066800000000	0.00000000000000	0.00000000000000	0.00000000000000	0.00000000000000	0.00000000000000	0.00000000000000	0.00000000000000	18.44781800000000	0.00000000000000	0.00000000000000	0.00000000000000	0.00000000000000	
20.04492100000000	-6.33772300000000	712.94078000000002	41.37354400000000	0.21060300000000	0.00000000000000	0.11077800000000	0.00000000000000	0.00000000000000	0.00000000000000	0.00000000000000	0.00000000000000	0.00000000000000	0.00000000000000	18.57879300000000	0.00000000000000	0.00000000000000	0.00000000000000	0.00000000000000	
20.04659900000000	-7.01498900000000	714.59904600000004	41.50174700000000	0.20941100000000	0.00000000000000	0.11088900000000	0.00000000000000	0.00000000000000	0.00000000000000	0.00000000000000	0.00000000000000	0.00000000000000	0.00000000000000	18.71060000000000	0.00000000000000	0.00000000000000	0.00000000000000	0.00000000000000	
20.04827700000000	-7.69741000000000	716.28960700000005	41.63196600000000	0.20820800000000	0.00000000000000	0.11100000000000	0.00000000000000	0.00000000000000	0.00000000000000	0.00000000000000	0.00000000000000	0.00000000000000	0.00000000000000	18.84322700000000	0.00000000000000	0.00000000000000	0.00000000000000	0.00000000000000	
20.04992400000000	-8.38472000000000	718.01161999999999	41.76431800000000	0.20699600000000	0.00000000000000	0.11111100000000	0.00000000000000	0.00000000000000	0.00000000000000	0.00000000000000	0.00000000000000	0.00000000000000	0.00000000000000	18.97666000000000	0.00000000000000	0.00000000000000	0.00000000000000	0.00000000000000	
20.05160700000000	-9.07664000000000	719.76426500000002	41.89892200000000	0.20577600000000	0.00000000000000	0.11122200000000	0.00000000000000	0.00000000000000	0.00000000000000	0.00000000000000	0.00000000000000	0.00000000000000	0.00000000000000	19.11088700000000	0.00000000000000	0.00000000000000	0.00000000000000	0.00000000000000	
20.05326300000000	-9.77287900000000	721.54674399999999	42.03590500000000	0.20455000000000	0.00000000000000	0.11133300000000	0.00000000000000	0.00000000000000	0.00000000000000	0.00000000000000	0.00000000000000	0.00000000000000	0.00000000000000	19.24589300000000	0.00000000000000	0.00000000000000	0.00000000000000	0.00000000000000	
20.05492900000000	-10.47314100000000	723.35828200000003	42.17539700000000	0.20332000000000	0.00000000000000	0.11144400000000	0.00000000000000	0.00000000000000	0.00000000000000	0.00000000000000	0.00000000000000	0.00000000000000	0.00000000000000	19.38166000000000	0.00000000000000	0.00000000000000	0.00000000000000	0.00000000000000	
20.05659100000000	-11.17711700000000	725.19812500000000	42.31753200000000	0.20208800000000	0.00000000000000	0.11155400000000	0.00000000000000	0.00000000000000	0.00000000000000	0.00000000000000	0.00000000000000	0.00000000000000	0.00000000000000	19.51816900000000	0.00000000000000	0.00000000000000	0.00000000000000	0.00000000000000	
20.05826200000000	-11.88449400000000	727.06553699999995	42.46244800000000	0.20085400000000	0.00000000000000	0.11166300000000	0.00000000000000	0.00000000000000	0.00000000000000	0.00000000000000	0.00000000000000	0.00000000000000	0.00000000000000	19.65539700000000	0.00000000000000	0.00000000000000	0.00000000000000	0.00000000000000	
20.05992800000000	-12.59495200000000	728.95980099999997	42.61028300000000	0.19962100000000	0.00000000000000	0.11177200000000	0.00000000000000	0.00000000000000	0.00000000000000	0.00000000000000	0.00000000000000	0.00000000000000	0.00000000000000	19.79331900000000	0.00000000000000	0.00000000000000	0.00000000000000	0.00000000000000	
20.06159200000000	-13.30816600000000	730.88022000000001	42.76118100000000	0.19839000000000	0.00000000000000	0.11188000000000	0.00000000000000	0.00000000000000	0.00000000000000	0.00000000000000	0.00000000000000	0.00000000000000	0.00000000000000	19.93190300000000	0.00000000000000	0.00000000000000	0.00000000000000	0.00000000000000	
20.06325900000000	-14.02380700000000	732.82610699999998	42.91528500000000	0.19716200000000	0.00000000000000	0.11198700000000	0.00000000000000	0.00000000000000	0.00000000000000	0.00000000000000	0.00000000000000	0.00000000000000	0.00000000000000	20.07111400000000	0.00000000000000	0.00000000000000	0.00000000000000	0.00000000000000	
20.06492100000000	-14.74154300000000	734.79679299999998	43.07274000000000	0.19594000000000	0.00000000000000	0.11209300000000	0.00000000000000	0.00000000000000	0.00000000000000	0.00000000000000	0.00000000000000	0.00000000000000	0.00000000000000	20.21091200000000	0.00000000000000	0.00000000000000	0.00000000000000	0.00000000000000	
20.06659000000000	-15.46104100000000	736.79161499999998	43.23369100000000	0.19472400000000	0.00000000000000	0.11219800000000	0.00000000000000	0.00000000000000	0.00000000000000	0.00000000000000	0.00000000000000	0.00000000000000	0.00000000000000	20.35125300000000	0.00000000000000	0.00000000000000	0.00000000000000	0.00000000000000	
20.06826200000000	-16.18196600000000	738.80992300000003	43.39828200000000	0.19351500000000	0.00000000000000	0.11230100000000	0.00000000000000	0.00000000000000	0.00000000000000	0.00000000000000	0.00000000000000	0.00000000000000	0.00000000000000	20.49208400000000	0.00000000000000	0.00000000000000	0.00000000000000	0.00000000000000	
20.06992700000000	-16.90398300000000	740.85106699999994	43.56665700000000	0.19231600000000	0.00000000000000	0.11240300000000	0.00000000000000	0.00000000000000	0.00000000000000	0.00000000000000	0.00000000000000	0.00000000000000	0.00000000000000	20.63335000000000	0.00000000000000	0.00000000000000	0.00000000000000	0.00000000000000	
20.07159500000000	-17.62675700000000	742.91440499999999	43.73895800000000	0.19112600000000	0.00000000000000	0.11250400000000	0.00000000000000	0.00000000000000	0.00000000000000	0.00000000000000	0.00000000000000	0.00000000000000	0.00000000000000	20.77498600000000	0.00000000000000	0.00000000000000	0.00000000000000	0.00000000000000	
20.07326000000000	-18.34995700000000	744.99928899999998	43.91532200000000	0.18994700000000	0.00000000000000	0.11260300000000	0.00000000000000	0.00000000000000	0.00000000000000	0.00000000000000	0.00000000000000	0.00000000000000	0.00000000000000	20.91692400000000	0.00000000000000	0.00000000000000	0.00000000000000	0.00000000000000	
20.07492500000000	-19.07325200000000	747.10507099999995	44.09588600000000	0.18877900000000	0.00000000000000	0.11270000000000	0.00000000000000	0.00000000000000	0.00000000000000	0.00000000000000	0.00000000000000	0.00000000000000	0.00000000000000	21.05908900000000	0.00000000000000	0.00000000000000	0.00000000000000	0.00000000000000	
20.07659500000000	-19.79631500000000	749.23109199999999	44.28078000000000	0.18762500000000	0.00000000000000	0.11279600000000	0.00000000000000	0.00000000000000	0.00000000000000	0.00000000000000	0.00000000000000	0.00000000000000	0.00000000000000	21.20139800000000	0.00000000000000	0.00000000000000	0.00000000000000	0.00000000000000	
20.07826100000000	-20.51882300000000	751.37668199999996	44.47013100000000	0.18648300000000	0.00000000000000	0.11289000000000	0.00000000000000	0.00000000000000	0.00000000000000	0.00000000000000	0.00000000000000	0.00000000000000	0.00000000000000	21.34376200000000	0.00000000000000	0.00000000000000	0.00000000000000	0.00000000000000	
20.07992600000000	-21.24045700000000	753.54115899999999	44.66405800000000	0.18535400000000	0.00000000000000	0.11298200000000	0.00000000000000	0.00000000000000	0.00000000000000	0.00000000000000	0.00000000000000	0.00000000000000	0.00000000000000	21.48608700000000	0.00000000000000	0.00000000000000	0.00000000000000	0.00000000000000	
20.08159600000000	-21.96090300000000	755.72381700000005	44.86267500000000	0.18424000000000	0.00000000000000	0.11307200000000	0.00000000000000	0.00000000000000	0.00000000000000	0.00000000000000	0.00000000000000	0.00000000000000	0.00000000000000	21.62827200000000	0.00000000000000	0.00000000000000	0.00000000000000	0.00000000000000	
20.08325500000000	-22.67985300000000	757.92392900000004	45.06608700000000	0.18314000000000	0.00000000000000	0.11316000000000	0.00000000000000	0.00000000000000	0.00000000000000	0.00000000000000	0.00000000000000	0.00000000000000	0.00000000000000	21.77021000000000	0.00000000000000	0.00000000000000	0.00000000000000	0.00000000000000	
